<svg id="Capa_1" data-name="Capa 1" xmlns="http://www.w3.org/2000/svg" xmlns:xlink="http://www.w3.org/1999/xlink" viewBox="0 0 512 512"><defs><style>.cls-1{fill:url(#Dégradé_sans_nom_32);}.cls-2{fill:url(#Dégradé_sans_nom_32-2);}.cls-3{fill:url(#Dégradé_sans_nom_32-3);}.cls-4{fill:url(#Dégradé_sans_nom_32-4);}.cls-5{fill:url(#Dégradé_sans_nom_32-5);}.cls-6{fill:url(#Dégradé_sans_nom_32-6);}</style><linearGradient id="Dégradé_sans_nom_32" x1="187" y1="70" x2="207" y2="70" gradientUnits="userSpaceOnUse"><stop offset="0.03" stop-color="#c9a43d"/><stop offset="1" stop-color="#ffe66a"/></linearGradient><linearGradient id="Dégradé_sans_nom_32-2" x1="226.36" y1="150" x2="287" y2="150" xlink:href="#Dégradé_sans_nom_32"/><linearGradient id="Dégradé_sans_nom_32-3" x1="293" y1="329" x2="513" y2="329" xlink:href="#Dégradé_sans_nom_32"/><linearGradient id="Dégradé_sans_nom_32-4" x1="1" y1="329" x2="221" y2="329" xlink:href="#Dégradé_sans_nom_32"/><linearGradient id="Dégradé_sans_nom_32-5" x1="107" y1="150" x2="407" y2="150" xlink:href="#Dégradé_sans_nom_32"/><linearGradient id="Dégradé_sans_nom_32-6" x1="147" y1="150.01" x2="367" y2="150.01" xlink:href="#Dégradé_sans_nom_32"/></defs><title>money</title><path class="cls-1" d="M197,60a10,10,0,1,0,10,10A10,10,0,0,0,197,60Z" transform="translate(-1 0)"/><path class="cls-2" d="M257,140a10,10,0,0,1,0-20c3.54,0,7.28,1.81,10.82,5.23a10,10,0,1,0,13.9-14.38,38.51,38.51,0,0,0-14.72-9.2V90a10,10,0,0,0-20,0v11.72A30,30,0,0,0,257,160a10,10,0,0,1,0,20c-4.27,0-8.88-2.69-13-7.57a10,10,0,1,0-15.3,12.87,41.48,41.48,0,0,0,18.29,13V210a10,10,0,0,0,20,0V198.28A30,30,0,0,0,257,140Z" transform="translate(-1 0)"/><path class="cls-3" d="M473,146a40,40,0,0,0-40,40v71.27a40,40,0,0,0-38.28,10.45l-67.07,67.06A49.65,49.65,0,0,0,313,370.15V429H303a10,10,0,0,0-10,10v63a10,10,0,0,0,10,10H443a10,10,0,0,0,10-10V439a10,10,0,0,0-10-10H433v-4.72a10.08,10.08,0,0,1,2.93-7.07l62.42-62.42A49.68,49.68,0,0,0,513,319.43V186A40,40,0,0,0,473,146ZM433,492H313V449H433Zm60-172.57a29.82,29.82,0,0,1-8.79,21.22l-62.42,62.42A30.17,30.17,0,0,0,413,424.28V429H333V370.15a29.78,29.78,0,0,1,8.79-21.22l67.07-67.07a20,20,0,0,1,27.45-.77l.17.15c.23.2.45.41.66.62a20,20,0,0,1,0,28.28l-49.69,49.69A10,10,0,0,0,401.59,374l49.69-49.69A40,40,0,0,0,453,269.56V186a20,20,0,0,1,40,0Z" transform="translate(-1 0)"/><path class="cls-4" d="M211,429H201V370.15a49.61,49.61,0,0,0-14.65-35.36l-67.07-67.07A40,40,0,0,0,81,257.27V186a40,40,0,0,0-80,0V319.43a49.68,49.68,0,0,0,14.65,35.36l62.42,62.42A10.08,10.08,0,0,1,81,424.28V429H71a10,10,0,0,0-10,10v63a10,10,0,0,0,10,10H211a10,10,0,0,0,10-10V439A10,10,0,0,0,211,429ZM29.79,340.65A29.82,29.82,0,0,1,21,319.43V186a20,20,0,0,1,40,0v83.56a40,40,0,0,0,1.72,54.72l50,50a10,10,0,0,0,14.14-14.14l-50-50a20,20,0,0,1,0-28.27c.21-.21.43-.42.66-.62l.17-.15a20,20,0,0,1,27.45.77l67.07,67.07A29.78,29.78,0,0,1,181,370.15V429H101v-4.72a30.17,30.17,0,0,0-8.79-21.21ZM201,492H81V449H201Z" transform="translate(-1 0)"/><path class="cls-5" d="M257,0C174.29,0,107,67.29,107,150s67.29,150,150,150,150-67.29,150-150S339.71,0,257,0Zm0,280c-71.68,0-130-58.32-130-130S185.32,20,257,20,387,78.32,387,150,328.68,280,257,280Z" transform="translate(-1 0)"/><path class="cls-6" d="M326.05,64.37c-26-21-60.07-28.94-93.42-21.75a10,10,0,1,0,4.22,19.55c27.41-5.91,55.34.56,76.64,17.76a90,90,0,1,1-135.85,27.58A10,10,0,1,0,160,98.05a110,110,0,1,0,166-33.68Z" transform="translate(-1 0)"/></svg>