<svg id="Capa_1" data-name="Capa 1" xmlns="http://www.w3.org/2000/svg" xmlns:xlink="http://www.w3.org/1999/xlink" viewBox="0 0 405 400"><defs><style>.cls-1{fill:url(#Dégradé_sans_nom_32);}.cls-2{fill:#fff;}.cls-3{fill:none;}</style><linearGradient id="Dégradé_sans_nom_32" x1="22.5" y1="198" x2="385.5" y2="198" gradientUnits="userSpaceOnUse"><stop offset="0.03" stop-color="#c9a43d"/><stop offset="1" stop-color="#ffe66a"/></linearGradient></defs><title>logoSite</title><circle class="cls-1" cx="204" cy="198" r="181.5"/><path class="cls-2" d="M418.69,220.27a3.32,3.32,0,0,0-1.09,0A174.71,174.71,0,0,0,329.25,267l-31.71,1.62a3.61,3.61,0,0,0-2.38,1l-32.57,32.58a3.59,3.59,0,0,0,2.55,6.15h.25l36.71-2.52c-1.44,3-2.8,6.12-4.06,9.35a3.61,3.61,0,0,0,.79,3.85L323,343.24a3.6,3.6,0,0,0,3.85.8c3.35-1.3,6.51-2.74,9.64-4.21L334,376.94a3.6,3.6,0,0,0,6.11,2.77l32.58-32.58a3.62,3.62,0,0,0,1.05-2.38l1.65-32.36a174.71,174.71,0,0,0,46.35-88A3.6,3.6,0,0,0,418.69,220.27Zm-144.2,80.15,24.81-24.81,23.05-1.19a141.31,141.31,0,0,0-16.44,23.84Zm92.12,42.5L341.8,367.73,344,335.87a140.49,140.49,0,0,0,23.84-16.5Zm-40.2-6.54-20.82-20.82c26.21-64.05,89.5-82.92,107.88-87.13C409.33,246.88,390.56,310.13,326.41,336.38Z" transform="translate(-77 -65)"/><path class="cls-2" d="M289.48,320.55a3.6,3.6,0,0,0-5.1,0L251,353.74a3.66,3.66,0,1,0,5.07,5.29l33.37-33.37A3.62,3.62,0,0,0,289.48,320.55Z" transform="translate(-77 -65)"/><path class="cls-2" d="M290.3,351.72l0,0a3.6,3.6,0,0,0-5.07,0l-33.4,33.55a3.6,3.6,0,0,0,3.66,6.19,3.54,3.54,0,0,0,1.26-1.26l33.37-33.37A3.6,3.6,0,0,0,290.3,351.72Z" transform="translate(-77 -65)"/><path class="cls-2" d="M321.06,352.52a3.61,3.61,0,0,0-4.68,0h.11l-33.37,33.37a3.6,3.6,0,1,0,5.07,5.07l33.26-33.37A3.6,3.6,0,0,0,321.06,352.52Z" transform="translate(-77 -65)"/><path class="cls-2" d="M374.52,251.44a16,16,0,1,0,16,16A16,16,0,0,0,374.52,251.44Zm6.22,22.33a9,9,0,0,1-12.55,0,8.78,8.78,0,0,1,0-12.4v-.15a8.87,8.87,0,1,1,12.55,12.55Z" transform="translate(-77 -65)"/><path class="cls-2" d="M217,184a47.7,47.7,0,1,0,47.69,47.7A47.75,47.75,0,0,0,217,184Zm0,90.37a42.68,42.68,0,1,1,42.67-42.67A42.72,42.72,0,0,1,217,274.4Z" transform="translate(-77 -65)"/><path class="cls-2" d="M199.9,205.36c-3-3-3.87-8.31-4.09-12.25a2.5,2.5,0,0,0-3.82-2,47.62,47.62,0,0,0-20.79,27.31,2.52,2.52,0,0,0,1.89,3.16c6,1.27,6.77,2.67,6.78,2.68a8.12,8.12,0,0,0,5.9,4.72,6.75,6.75,0,0,0,1.19.1c2.72,0,5.65-1.45,8.36-4.17.56-.55,1.14-1.1,1.73-1.65,3-2.84,6.42-6.05,6.49-10.33C203.58,210.36,202.35,207.81,199.9,205.36Zm-6.29,14.25c-.63.59-1.25,1.18-1.83,1.76-1.92,1.92-3.82,2.9-5.2,2.67a3.21,3.21,0,0,1-2.22-2c-1-2-3.43-3.53-7.53-4.69a42.5,42.5,0,0,1,14.43-19.64c.81,4.88,2.51,8.64,5.09,11.22,1.46,1.46,2.19,2.79,2.17,4C198.49,215,196,217.35,193.61,219.61Z" transform="translate(-77 -65)"/><path class="cls-2" d="M221.15,240.84a15,15,0,0,0-7.4-9.85,18,18,0,0,0-14.13-1.07c-3.23,1.07-6.45,2.42-8.16,5-2.07,3.1-1.24,6.77-.29,9.62,2,6.06,5.9,6.74,9,7.29a13.48,13.48,0,0,1,3.68,1c1.15.58.79,6.81-1.26,13a2.51,2.51,0,0,0,1.11,3,13.31,13.31,0,0,0,6.08,1.75,7.11,7.11,0,0,0,2.8-.54,6.93,6.93,0,0,0,4-5.06,57.82,57.82,0,0,1,2.5-7.38C221,252.56,222.9,247.84,221.15,240.84Zm-6.74,14.88a63,63,0,0,0-2.71,8c-.33,1.34-.87,1.57-1,1.65a4.25,4.25,0,0,1-2.6-.16c1.41-5,3.2-14.29-1.94-16.85a17.33,17.33,0,0,0-5.06-1.48c-2.78-.49-4.05-.71-5.12-3.94-1.13-3.4-.71-4.62-.29-5.24.68-1,2.4-2,5.57-3a12.92,12.92,0,0,1,10.13.71,10,10,0,0,1,4.94,6.67C217.64,247.5,216.28,251,214.41,255.72Z" transform="translate(-77 -65)"/><path class="cls-2" d="M261.29,214.05a48.05,48.05,0,0,0-19.61-23.14,2.51,2.51,0,0,0-3.06.36c-11.55,11.29-12.55,15.24-12,17.62a4,4,0,0,0,2.75,2.91c3.77,1.26,6.85,2.52,8.8,3.38a6.87,6.87,0,0,1-5.72,3.17c-11.83,0-18.52.22-18.52,4.8,0,2.13,2,4,7.76,8.79a54.25,54.25,0,0,1,6,5.42c.3,3.27,3.16,12.89,5.28,15a10,10,0,0,0,6.78,2.79,8.2,8.2,0,0,0,2.17-.29c2.27-.63,5.29-2.57,6.7-8.23a53.52,53.52,0,0,0,1.33-9.81c.29-4.42.53-6.16,1.93-6.86,1.68-.84,4.48-3.2,9.38-13.95A2.5,2.5,0,0,0,261.29,214.05Zm-11.67,11.43c-4.12,2.06-4.4,6.41-4.7,11a48.06,48.06,0,0,1-1.19,8.92c-.46,1.83-1.38,4.11-3.17,4.61a4.72,4.72,0,0,1-4-1.17c-1.15-1.37-3.87-10.18-3.87-12,0-2.13-2-4-7.76-8.79-1.51-1.25-3.55-3-4.86-4.2a99.56,99.56,0,0,1,12.4-.51c8.57,0,11.41-8.23,11.53-8.58a2.51,2.51,0,0,0-1.26-3,96.57,96.57,0,0,0-11-4.46c.48-1.18,2.28-4.28,9-11a43.12,43.12,0,0,1,15.5,18.67C251.93,224.11,249.85,225.36,249.62,225.48Z" transform="translate(-77 -65)"/><path class="cls-2" d="M292.3,166.46a27.62,27.62,0,1,0,27.61,27.62A27.65,27.65,0,0,0,292.3,166.46Zm0,50.21a22.6,22.6,0,1,1,22.59-22.59A22.62,22.62,0,0,1,292.3,216.67Z" transform="translate(-77 -65)"/><path class="cls-2" d="M248.38,131.32a18.83,18.83,0,1,0,18.82,18.83A18.85,18.85,0,0,0,248.38,131.32Zm0,32.63a13.81,13.81,0,1,1,13.8-13.8A13.82,13.82,0,0,1,248.38,164Z" transform="translate(-77 -65)"/><path class="cls-2" d="M289.79,179H272.22a2.51,2.51,0,0,0,0,5h17.57a2.51,2.51,0,0,0,0-5Z" transform="translate(-77 -65)"/><path class="cls-2" d="M314.89,186.54h-10a2.51,2.51,0,0,0,0,5h10a2.51,2.51,0,0,0,0-5Z" transform="translate(-77 -65)"/><path class="cls-2" d="M277.24,191.57h-10a2.51,2.51,0,1,0,0,5h10a2.51,2.51,0,1,0,0-5Z" transform="translate(-77 -65)"/><path class="cls-2" d="M292.3,206.63H274.73a2.51,2.51,0,1,0,0,5H292.3a2.51,2.51,0,1,0,0-5Z" transform="translate(-77 -65)"/><path class="cls-2" d="M314.89,196.58H299.83a2.51,2.51,0,0,0,0,5h15.06a2.51,2.51,0,0,0,0-5Z" transform="translate(-77 -65)"/><path class="cls-2" d="M242.1,143.87h-7.53a2.51,2.51,0,0,0,0,5h7.53a2.51,2.51,0,1,0,0-5Z" transform="translate(-77 -65)"/><path class="cls-2" d="M294.08,139.59a2.6,2.6,0,0,0-3.56,0,3,3,0,0,0-.31.38,3.42,3.42,0,0,0-.23.42,2.29,2.29,0,0,0-.13.48,2.09,2.09,0,0,0-.05.49,2.69,2.69,0,0,0,.18,1,2.57,2.57,0,0,0,.54.8,2.5,2.5,0,0,0,1.79.74,2.41,2.41,0,0,0,.95-.19,2.47,2.47,0,0,0,.82-.55,2.53,2.53,0,0,0,.74-1.77A2.58,2.58,0,0,0,294.08,139.59Z" transform="translate(-77 -65)"/><path class="cls-2" d="M307.32,150.91a3.53,3.53,0,0,0-.15-.46,2.6,2.6,0,0,0-.23-.44,2.85,2.85,0,0,0-.31-.38,2.24,2.24,0,0,0-.38-.31,2.11,2.11,0,0,0-.44-.24,2.69,2.69,0,0,0-.46-.14,2.52,2.52,0,0,0-2.27.69,2.92,2.92,0,0,0-.32.38,2.26,2.26,0,0,0-.22.44,1.9,1.9,0,0,0-.15.46,2.77,2.77,0,0,0,0,.49,2.43,2.43,0,0,0,.73,1.77,2.33,2.33,0,0,0,.81.55,2.43,2.43,0,0,0,1,.19,2.41,2.41,0,0,0,.95-.19,2.47,2.47,0,0,0,.82-.55,2.51,2.51,0,0,0,.73-1.77A4.22,4.22,0,0,0,307.32,150.91Z" transform="translate(-77 -65)"/><path class="cls-2" d="M294.77,266.38a4.42,4.42,0,0,0-.15-.48,2.82,2.82,0,0,0-.23-.42,2.33,2.33,0,0,0-.31-.38,2.6,2.6,0,0,0-3.56,0,3,3,0,0,0-.31.38,2.82,2.82,0,0,0-.23.42,2.29,2.29,0,0,0-.13.48,2,2,0,0,0-.05.49,2.5,2.5,0,0,0,.72,1.77,2.5,2.5,0,0,0,1.79.74,2.09,2.09,0,0,0,.49-.05,2.44,2.44,0,0,0,.46-.14,1.82,1.82,0,0,0,.43-.24,2.31,2.31,0,0,0,.39-.31,2.53,2.53,0,0,0,.74-1.77A4.07,4.07,0,0,0,294.77,266.38Z" transform="translate(-77 -65)"/><path class="cls-2" d="M317.36,246.3a3.82,3.82,0,0,0-.15-.48,3.55,3.55,0,0,0-.23-.43,2.25,2.25,0,0,0-.31-.37,1.9,1.9,0,0,0-.38-.32,2.7,2.7,0,0,0-.44-.24,2,2,0,0,0-.46-.13,2.75,2.75,0,0,0-1.46.13,1.91,1.91,0,0,0-.42.24,1.71,1.71,0,0,0-.39.32,2.3,2.3,0,0,0-.32.37,3.48,3.48,0,0,0-.22.43,1.65,1.65,0,0,0-.14.48,2,2,0,0,0-.05.49,2.42,2.42,0,0,0,.19,1,2.22,2.22,0,0,0,.54.81,2.59,2.59,0,0,0,.81.55,2.62,2.62,0,0,0,1,.19,2.56,2.56,0,0,0,1-.19,2.63,2.63,0,0,0,.82-.55,2.35,2.35,0,0,0,.54-.81,2.62,2.62,0,0,0,.2-1A3.87,3.87,0,0,0,317.36,246.3Z" transform="translate(-77 -65)"/><path class="cls-2" d="M251.41,182.27a2.58,2.58,0,0,0-3.56,0,2.5,2.5,0,0,0-.72,1.77,2.47,2.47,0,0,0,.72,1.76,2.66,2.66,0,0,0,.82.56,2.61,2.61,0,0,0,1,.18,2.59,2.59,0,0,0,1-.18,2.51,2.51,0,0,0,.81-.56,2.49,2.49,0,0,0,0-3.53Z" transform="translate(-77 -65)"/><path class="cls-2" d="M289.75,241.28a3.82,3.82,0,0,0-.15-.48,3.55,3.55,0,0,0-.23-.43,2.25,2.25,0,0,0-.31-.37,2.58,2.58,0,0,0-3.56,0,2.89,2.89,0,0,0-.31.37,3.55,3.55,0,0,0-.23.43,3.82,3.82,0,0,0-.15.48,3.91,3.91,0,0,0,0,.49,2.44,2.44,0,0,0,.72,1.77,2.51,2.51,0,0,0,3.56,0,2.61,2.61,0,0,0,.54-.81,2.66,2.66,0,0,0,.2-1A3.87,3.87,0,0,0,289.75,241.28Z" transform="translate(-77 -65)"/><path class="cls-2" d="M211.93,171a1.9,1.9,0,0,0-.15-.46,3,3,0,0,0-.22-.44,2.3,2.3,0,0,0-.32-.38,2.17,2.17,0,0,0-.37-.31,2.7,2.7,0,0,0-.44-.24A2.79,2.79,0,0,0,210,169a2.51,2.51,0,0,0-2.27.69,3.93,3.93,0,0,0-.31.38,2.3,2.3,0,0,0-.23.44,2.44,2.44,0,0,0-.14.46,2.83,2.83,0,0,0,0,.5,2.41,2.41,0,0,0,.73,1.76,2.66,2.66,0,0,0,.82.56,2.56,2.56,0,0,0,1,.18,2.53,2.53,0,0,0,2.51-2.51A2.81,2.81,0,0,0,211.93,171Z" transform="translate(-77 -65)"/><path class="cls-2" d="M262.18,153.91h-7.53a2.51,2.51,0,1,0,0,5h7.53a2.51,2.51,0,1,0,0-5Z" transform="translate(-77 -65)"/><path class="cls-2" d="M201.2,144.61l-10-10a2.51,2.51,0,0,0-3.55,0l-10,10a2.51,2.51,0,0,0,0,3.55l10,10a2.52,2.52,0,0,0,3.55,0l10-10A2.51,2.51,0,0,0,201.2,144.61Zm-11.81,8.26-6.49-6.49,6.49-6.49,6.49,6.49Z" transform="translate(-77 -65)"/><path class="cls-2" d="M189.39,126.3a2.51,2.51,0,0,0-2.51,2.51v7.53a2.51,2.51,0,1,0,5,0v-7.53A2.52,2.52,0,0,0,189.39,126.3Z" transform="translate(-77 -65)"/><path class="cls-2" d="M179.35,143.87h-7.53a2.51,2.51,0,0,0,0,5h7.53a2.51,2.51,0,1,0,0-5Z" transform="translate(-77 -65)"/><path class="cls-2" d="M189.39,153.91a2.51,2.51,0,0,0-2.51,2.51V164a2.51,2.51,0,0,0,5,0v-7.53A2.52,2.52,0,0,0,189.39,153.91Z" transform="translate(-77 -65)"/><path class="cls-2" d="M207,143.87h-7.53a2.51,2.51,0,0,0,0,5H207a2.51,2.51,0,1,0,0-5Z" transform="translate(-77 -65)"/><rect id="_Tranche_" data-name="&lt;Tranche&gt;" class="cls-3" width="405" height="400"/></svg>