<svg id="Capa_1" data-name="Capa 1" xmlns="http://www.w3.org/2000/svg" xmlns:xlink="http://www.w3.org/1999/xlink" viewBox="0 0 432.01 480.01"><defs><style>.cls-1{fill:url(#Dégradé_sans_nom_32);}.cls-2{fill:url(#Dégradé_sans_nom_32-2);}.cls-3{fill:url(#Dégradé_sans_nom_32-3);}.cls-4{fill:url(#Dégradé_sans_nom_32-4);}.cls-5{fill:url(#Dégradé_sans_nom_32-5);}.cls-6{fill:url(#Dégradé_sans_nom_32-6);}</style><linearGradient id="Dégradé_sans_nom_32" x1="104.99" y1="256" x2="473.01" y2="256" gradientUnits="userSpaceOnUse"><stop offset="0.03" stop-color="#c9a43d"/><stop offset="1" stop-color="#ffe66a"/></linearGradient><linearGradient id="Dégradé_sans_nom_32-2" x1="40.99" y1="476" x2="56.99" y2="476" xlink:href="#Dégradé_sans_nom_32"/><linearGradient id="Dégradé_sans_nom_32-3" x1="40.99" y1="256.02" x2="312.9" y2="256.02" xlink:href="#Dégradé_sans_nom_32"/><linearGradient id="Dégradé_sans_nom_32-4" x1="136.99" y1="376" x2="216.99" y2="376" xlink:href="#Dégradé_sans_nom_32"/><linearGradient id="Dégradé_sans_nom_32-5" x1="248.99" y1="272" x2="328.99" y2="272" xlink:href="#Dégradé_sans_nom_32"/><linearGradient id="Dégradé_sans_nom_32-6" x1="352.99" y1="168" x2="432.99" y2="168" xlink:href="#Dégradé_sans_nom_32"/></defs><title>upgrade</title><path class="cls-1" d="M472.67,53.71a8,8,0,0,0-4.7-5.14l-80-32A8,8,0,0,0,377,24V128H329a8,8,0,0,0-8,8v96H225a8,8,0,0,0-8,8v96H113a8,8,0,0,0-8,8V488a8,8,0,0,0,16,0V352H225a8,8,0,0,0,8-8V248h96a8,8,0,0,0,8-8V144H449V488a8,8,0,0,0,16,0V136a8,8,0,0,0-8-8H393V86l74.3-22.28A8,8,0,0,0,472.67,53.71ZM393,69.25V35.82l47.76,19.1Z" transform="translate(-40.99 -16)"/><path class="cls-2" d="M49,456a8,8,0,0,0-8,8v24a8,8,0,0,0,16,0V464A8,8,0,0,0,49,456Z" transform="translate(-40.99 -16)"/><path class="cls-3" d="M310.65,98.35l-24-24c-.07-.08-.17-.1-.24-.16a8,8,0,0,0-2.35-1.6.33.33,0,0,1-.21,0,7.6,7.6,0,0,0-2.54-.5,5.56,5.56,0,0,0-.8,0,7.84,7.84,0,0,0-2,.39,7.61,7.61,0,0,0-.75.28,7.88,7.88,0,0,0-2.4,1.6l-24,24a8,8,0,0,0,11.31,11.31L273,99.31V168H161a8,8,0,0,0-8,8V280H49a8,8,0,0,0-8,8V432a8,8,0,0,0,16,0V296H161a8,8,0,0,0,8-8V184H281a8,8,0,0,0,8-8V99.31l10.35,10.35a8,8,0,0,0,11.31-11.31Z" transform="translate(-40.99 -16)"/><path class="cls-4" d="M209,368H145a8,8,0,0,0,0,16h64a8,8,0,0,0,0-16Z" transform="translate(-40.99 -16)"/><path class="cls-5" d="M321,264H257a8,8,0,0,0,0,16h64a8,8,0,0,0,0-16Z" transform="translate(-40.99 -16)"/><path class="cls-6" d="M425,160H361a8,8,0,0,0,0,16h64a8,8,0,0,0,0-16Z" transform="translate(-40.99 -16)"/></svg>